<svg width="233" height="202" viewBox="0 0 233 202" fill="none" xmlns="http://www.w3.org/2000/svg">
<path d="M39.0156 239.443L70.8082 233.932C90.2379 230.587 106.058 216.402 111.495 197.451C116.932 178.5 132.753 164.315 152.182 160.969C171.612 157.624 187.433 143.439 192.87 124.488C198.272 105.498 214.092 91.3131 233.557 88.0066L265.384 82.5347" stroke="#DDF23D" stroke-width="3" stroke-miterlimit="10"/>
<path d="M69 271.441L100.793 265.931C120.222 262.586 136.043 248.4 141.48 229.449C146.917 210.498 162.737 196.313 182.167 192.968C201.597 189.623 217.417 175.438 222.854 156.487C228.256 137.497 244.077 123.312 263.541 120.005L295.368 114.533" stroke="#DDF23D" stroke-width="3" stroke-miterlimit="10"/>
<path d="M1.95605 205.095L35.6351 199.257C56.2176 195.714 72.977 180.687 78.7364 160.611C84.4959 140.536 101.255 125.509 121.838 121.965C142.42 118.421 159.18 103.394 164.939 83.3189C170.662 63.2025 187.421 48.1755 208.04 44.6728L241.756 38.8762" stroke="#DDF23D" stroke-width="3" stroke-miterlimit="10"/>
</svg>